<?xml version="1.0" encoding="utf-8"?>
<!-- Generator: Adobe Illustrator 16.0.0, SVG Export Plug-In . SVG Version: 6.00 Build 0)  -->
<!DOCTYPE svg PUBLIC "-//W3C//DTD SVG 1.1//EN" "http://www.w3.org/Graphics/SVG/1.1/DTD/svg11.dtd">
<svg version="1.1" id="Calque_1" xmlns="http://www.w3.org/2000/svg" xmlns:xlink="http://www.w3.org/1999/xlink" x="0px" y="0px"
	 width="85.04px" height="85.04px" viewBox="0 0 85.04 85.04" enable-background="new 0 0 85.04 85.04" xml:space="preserve">
<path fill="#D1AA2B" d="M47.936,50.524H27.721l0.01-0.654c0.386-2.373,2.406-4.151,4.515-5.082c0.299-0.132,1.748-0.685,1.962-0.657
	c0.069,0.008,0.784,0.604,0.974,0.719c1.718,1.038,3.577,1.021,5.293,0.001c0.201-0.12,0.914-0.714,0.974-0.722
	c0.256-0.03,1.702,0.543,2.032,0.692C45.69,45.821,48.045,47.886,47.936,50.524"/>
<path fill="#D1AA2B" d="M37.604,34.523c6.613-0.34,6.332,9.792,0.682,10.284C32.177,45.338,30.88,34.868,37.604,34.523"/>
<path fill="#FFFFFF" d="M65.805,41.382V36.27c0-1.646,0.187-3.42,0-5.041c-0.077-0.676-0.307-1.353-0.766-1.859
	c-1.115-1.229-3.956-0.693-5.475-0.693h-3.667v1.429h7.708l0.412,0.302l0.251,0.361V42.05h-13.17v-9.393h-0.816v22.256H26.137
	l-0.506-0.412l-0.158-0.451l-0.004-22.979l0.119-0.494l0.549-0.472H39.46c0.026-0.425-0.068-0.872,0.081-1.28l-0.132-0.149H28.425
	c-1.438,0-3.186-0.323-4.049,1.123c-0.762,1.28-0.438,3.237-0.438,4.701c0.004,1.552,0.004,3.105,0.004,4.658v10.715
	c0,2.293-0.757,6.428,2.676,6.471c4.756,0.056,9.516,0,14.271,0l-0.025,0.434l-0.596,2.314c-0.097,0.001-0.194,0.002-0.291,0.003
	c-0.251,0.002-0.503,0.005-0.755,0.007l-1.045,0.011c-0.387,0.003-0.773,0.007-1.16,0.011c-0.367,0.004-0.734,0.007-1.101,0.011
	c-0.289,0.003-0.579,0.006-0.868,0.009c-0.097,0-0.193,0.001-0.29,0.002c-0.061,0.001-0.128-0.013-0.188-0.003
	c-0.095,0.015-0.169,0.107-0.233,0.17c-0.053,0.052-0.104,0.104-0.154,0.159c-0.022,0.023-0.124,0.11-0.124,0.146
	c-0.169,0.229-0.219,0.53-0.142,0.804c0.044,0.158,0.129,0.304,0.244,0.42c0.108,0.109,0.283,0.274,0.445,0.279
	c0.079,0.002,0.161-0.004,0.241-0.004h0.37h0.496h0.611h0.714h0.806h0.886h0.954h1.01h1.055h1.088h1.109h1.12h1.117h1.104h1.078
	h1.04h0.992h0.932h0.86h0.775h0.681h0.573h0.454h0.323h0.182c0.008,0,0.03,0.005,0.036,0c0.265-0.168,0.499-0.323,0.604-0.638
	c0.094-0.283,0.049-0.6-0.115-0.848c-0.13-0.195-0.334-0.332-0.51-0.483l-5.717-0.056l-0.591-2.314l-0.03-0.434h13.09
	c0.944,0,2.041,0.188,2.828-0.435c1.366-1.084,1.03-3.16,1.03-4.661C65.805,47.959,65.805,44.671,65.805,41.382 M64.269,54.251
	l-0.298,0.417l-0.468,0.246H51.099V42.969h13.17V54.251z"/>
<path fill="#FFFFFF" d="M55.127,22.253l-0.562-0.562l-0.655-0.166H41.349l-0.655,0.264l-0.421,0.502l-0.204,0.817l0.03,7.636
	l0.298,0.723l0.357,0.357l0.502,0.217l0.961,0.004c0.166,0.162-1.233,2.438-1.123,2.552c0.17,0.174,3.65-2.463,4.161-2.531
	l8.755-0.021l0.489-0.128l0.446-0.314l0.242-0.421l0.103-0.413v-7.963L55.127,22.253z M51.494,29.936l-0.148,0.162l-0.302,0.106
	l-8.066,0.008l-0.43-0.081l-0.213-0.195v-0.528l0.238-0.119h8.781l0.14,0.166V29.936z M53.018,27.119l-0.536,0.132h-9.708
	l-0.306-0.098l-0.217-0.366l0.217-0.366l0.306-0.098h9.811l0.51,0.208l0.03,0.336L53.018,27.119z M52.937,24.235l-10.163,0.055
	l-0.306-0.098l-0.217-0.366l0.234-0.349l0.396-0.115h9.602l0.536,0.132l0.11,0.515L52.937,24.235z"/>
<path fill="#FFFFFF" d="M52.121,40.519l0.027-0.433l0.19-0.626c0.416-0.962,1.27-1.654,2.208-2.08
	c0.19-0.086,1.065-0.415,1.203-0.397c0.082,0.01,0.324,0.298,0.486,0.391c1.197,0.689,2.479,0.506,3.49-0.389
	c1.648,0.428,3.595,1.602,3.523,3.534H52.121z"/>
<path fill="#FFFFFF" d="M57.703,31.675c3.949-0.01,3.096,6.334-0.481,5.633C54.36,36.747,54.272,31.684,57.703,31.675"/>
<path fill="#FFFFFF" d="M55.8,49.248c-1.392-1.714-0.72-4.424,1.607-4.722c1.106-0.145,2.263,0.502,2.697,1.54
	C61.296,48.903,57.858,51.783,55.8,49.248"/>
</svg>
