<?xml version="1.0" encoding="utf-8"?>
<!-- Generator: Adobe Illustrator 16.0.0, SVG Export Plug-In . SVG Version: 6.00 Build 0)  -->
<!DOCTYPE svg PUBLIC "-//W3C//DTD SVG 1.1//EN" "http://www.w3.org/Graphics/SVG/1.1/DTD/svg11.dtd">
<svg version="1.1" id="Calque_1" xmlns="http://www.w3.org/2000/svg" xmlns:xlink="http://www.w3.org/1999/xlink" x="0px" y="0px"
	 width="85.04px" height="85.04px" viewBox="0 0 85.04 85.04" enable-background="new 0 0 85.04 85.04" xml:space="preserve">
<path fill="#FFFFFF" d="M73.952,28.401v30.363c0,3.074-2.494,5.571-5.571,5.571h-50.7c-3.074,0-5.57-2.497-5.57-5.571V28.401
	c0-0.356,0.033-0.706,0.099-1.048c0.081-0.453,0.217-0.886,0.401-1.294c0.989-1.834,2.93-3.155,5.24-3.397h0.004h50.354h0.004
	c2.309,0.243,4.25,1.563,5.24,3.397c0.184,0.408,0.319,0.842,0.4,1.294C73.919,27.695,73.952,28.045,73.952,28.401"/>
<path fill="#D1AA2B" d="M73.853,27.354L46.511,43.587c-2.108,1.257-4.844,1.257-6.958,0L12.21,27.354
	c0.081-0.453,0.217-0.886,0.401-1.294c0.989-1.834,2.93-3.155,5.24-3.397h0.004c0.25-0.026,0.507-0.041,0.765-0.041h48.824
	c0.257,0,0.515,0.015,0.765,0.041h0.004c2.309,0.243,4.25,1.563,5.24,3.397C73.636,26.467,73.771,26.901,73.853,27.354"/>
<polygon fill="#D1AA2B" points="63.186,56.29 66.493,60.795 69.8,56.29 66.493,51.785 "/>
</svg>
