<svg width="86" height="86" viewBox="0 0 86 86" fill="none" xmlns="http://www.w3.org/2000/svg">
<path d="M60.0582 71.3841V46.5721C57.4492 46.3881 55.0062 45.5861 52.8802 44.3061H24.3982C23.3882 44.3061 22.5672 43.4851 22.5672 42.4741C22.5672 41.4631 23.3882 40.6421 24.3982 40.6421H48.6532C46.7682 38.3351 45.5082 35.4971 45.1322 32.3921H24.3982C23.3882 32.3921 22.5672 31.5741 22.5672 30.5611C22.5672 29.5501 23.3882 28.7301 24.3982 28.7301H45.1002C45.4092 25.7921 46.5042 23.0871 48.1752 20.8291H16.4632C15.7892 20.8291 15.2422 21.3761 15.2422 22.0501V71.3831C15.2422 74.1421 17.4792 76.3781 20.2382 76.3781H61.6492C60.6482 74.9681 60.0582 73.2421 60.0582 71.3841ZM50.9012 68.1291H24.3982C23.3882 68.1291 22.5672 67.3121 22.5672 66.2991C22.5672 65.2861 23.3882 64.4671 24.3982 64.4671H50.9012C51.9122 64.4671 52.7332 65.2861 52.7332 66.2991C52.7332 67.3121 51.9122 68.1291 50.9012 68.1291ZM50.9012 56.2191H24.3982C23.3882 56.2191 22.5672 55.3991 22.5672 54.3871C22.5672 53.3741 23.3882 52.5561 24.3982 52.5561H50.9012C51.9122 52.5561 52.7332 53.3741 52.7332 54.3871C52.7332 55.3981 51.9122 56.2191 50.9012 56.2191Z" fill="#00343A"/>
<path d="M73.7127 30.4291C73.7127 37.3421 68.1087 42.9481 61.1957 42.9481C54.2817 42.9481 48.6777 37.3421 48.6777 30.4291C48.6777 23.5151 54.2817 17.9111 61.1957 17.9111C68.1077 17.9121 73.7127 23.5151 73.7127 30.4291Z" fill="#D1AA2B"/>
</svg>
