<svg width="86" height="86" viewBox="0 0 86 86" fill="none" xmlns="http://www.w3.org/2000/svg">
<path d="M47.9357 50.5241H27.7207L27.7307 49.8701C28.1167 47.4971 30.1367 45.7191 32.2457 44.7881C32.5447 44.6561 33.9937 44.1031 34.2077 44.1311C34.2767 44.1391 34.9917 44.7351 35.1817 44.8501C36.8997 45.8881 38.7587 45.8711 40.4747 44.8511C40.6757 44.7311 41.3887 44.1371 41.4487 44.1291C41.7047 44.0991 43.1507 44.6721 43.4807 44.8211C45.6897 45.8211 48.0447 47.8861 47.9357 50.5241Z" fill="#D1AA2B"/>
<path d="M37.6033 34.523C44.2163 34.183 43.9353 44.315 38.2853 44.807C32.1763 45.338 30.8793 34.868 37.6033 34.523Z" fill="#D1AA2B"/>
<path d="M65.8046 41.3819V36.2699C65.8046 34.6239 65.9916 32.8499 65.8046 31.2289C65.7276 30.5529 65.4976 29.8759 65.0386 29.3699C63.9236 28.1409 61.0826 28.6769 59.5636 28.6769H55.8966V30.1059H63.6046L64.0166 30.4079L64.2676 30.7689V42.0499H51.0976V32.6569H50.2816V54.9129H26.1366L25.6306 54.5009L25.4726 54.0499L25.4686 31.0709L25.5876 30.5769L26.1366 30.1049H39.4596C39.4856 29.6799 39.3916 29.2329 39.5406 28.8249L39.4086 28.6759H28.4246C26.9866 28.6759 25.2386 28.3529 24.3756 29.7989C23.6136 31.0789 23.9376 33.0359 23.9376 34.4999C23.9416 36.0519 23.9416 37.6049 23.9416 39.1579V49.8729C23.9416 52.1659 23.1846 56.3009 26.6176 56.3439C31.3736 56.3999 36.1336 56.3439 40.8886 56.3439L40.8636 56.7779L40.2676 59.0919C40.1706 59.0929 40.0736 59.0939 39.9766 59.0949C39.7256 59.0969 39.4736 59.0999 39.2216 59.1019L38.1766 59.1129C37.7896 59.1159 37.4036 59.1199 37.0166 59.1239C36.6496 59.1279 36.2826 59.1309 35.9156 59.1349C35.6266 59.1379 35.3366 59.1409 35.0476 59.1439C34.9506 59.1439 34.8546 59.1449 34.7576 59.1459C34.6966 59.1469 34.6296 59.1329 34.5696 59.1429C34.4746 59.1579 34.4006 59.2499 34.3366 59.3129C34.2836 59.3649 34.2326 59.4169 34.1826 59.4719C34.1606 59.4949 34.0586 59.5819 34.0586 59.6179C33.8896 59.8469 33.8396 60.1479 33.9166 60.4219C33.9606 60.5799 34.0456 60.7259 34.1606 60.8419C34.2686 60.9509 34.4436 61.1159 34.6056 61.1209C34.6846 61.1229 34.7666 61.1169 34.8466 61.1169H35.2166H35.7126H36.3236H37.0376H37.8436H38.7296H39.6836H40.6936H41.7486H42.8366H43.9456H45.0656H46.1826H47.2866H48.3646H49.4046H50.3966H51.3286H52.1886H52.9636H53.6446H54.2176H54.6716H54.9946H55.1766C55.1846 61.1169 55.2066 61.1219 55.2126 61.1169C55.4776 60.9489 55.7116 60.7939 55.8166 60.4789C55.9106 60.1959 55.8656 59.8789 55.7016 59.6309C55.5716 59.4359 55.3676 59.2989 55.1916 59.1479L49.4746 59.0919L48.8836 56.7779L48.8536 56.3439H61.9436C62.8876 56.3439 63.9846 56.5319 64.7716 55.9089C66.1376 54.8249 65.8016 52.7489 65.8016 51.2479C65.8046 47.9589 65.8046 44.6709 65.8046 41.3819ZM64.2686 54.2509L63.9706 54.6679L63.5026 54.9139H51.0986V42.9689H64.2686V54.2509Z" fill="#00343A"/>
<path d="M55.1264 22.2529L54.5644 21.6909L53.9094 21.5249H41.3484L40.6934 21.7889L40.2724 22.2909L40.0684 23.1079L40.0984 30.7439L40.3964 31.4669L40.7534 31.8239L41.2554 32.0409L42.2164 32.0449C42.3824 32.2069 40.9834 34.4829 41.0934 34.5969C41.2634 34.7709 44.7434 32.1339 45.2544 32.0659L54.0094 32.0449L54.4984 31.9169L54.9444 31.6029L55.1864 31.1819L55.2894 30.7689V22.8059L55.1264 22.2529ZM51.4934 29.9359L51.3454 30.0979L51.0434 30.2039L42.9774 30.2119L42.5474 30.1309L42.3344 29.9359V29.4079L42.5724 29.2889H51.3534L51.4934 29.4549V29.9359ZM53.0174 27.1189L52.4814 27.2509H42.7734L42.4674 27.1529L42.2504 26.7869L42.4674 26.4209L42.7734 26.3229H52.5844L53.0944 26.5309L53.1244 26.8669L53.0174 27.1189ZM52.9364 24.2349L42.7734 24.2899L42.4674 24.1919L42.2504 23.8259L42.4844 23.4769L42.8804 23.3619H52.4824L53.0184 23.4939L53.1284 24.0089L52.9364 24.2349Z" fill="#00343A"/>
<path d="M52.1211 40.5191L52.1481 40.0861L52.3381 39.4601C52.7541 38.4981 53.6081 37.8061 54.5461 37.3801C54.7361 37.2941 55.6111 36.9651 55.7491 36.9831C55.8311 36.9931 56.0731 37.2811 56.2351 37.3741C57.4321 38.0631 58.7141 37.8801 59.7251 36.9851C61.3731 37.4131 63.3201 38.5871 63.2481 40.5191H52.1211Z" fill="#00343A"/>
<path d="M52 53.8443L52.027 53.4113L52.217 52.7853C52.633 51.8233 53.487 51.1313 54.425 50.7053C54.615 50.6193 55.49 50.2903 55.628 50.3083C55.71 50.3183 55.952 50.6063 56.114 50.6993C57.311 51.3883 58.593 51.2053 59.604 50.3103C61.252 50.7383 63.199 51.9123 63.127 53.8443H52Z" fill="#00343A"/>
<path d="M57.7023 31.6748C61.6513 31.6648 60.7983 38.0088 57.2213 37.3078C54.3593 36.7468 54.2713 31.6838 57.7023 31.6748Z" fill="#00343A"/>
<path d="M57.5812 45C61.5302 44.99 60.6772 51.334 57.1002 50.633C54.2382 50.072 54.1502 45.009 57.5812 45Z" fill="#00343A"/>
</svg>
