<?xml version="1.0" encoding="utf-8"?>
<!-- Generator: Adobe Illustrator 16.0.0, SVG Export Plug-In . SVG Version: 6.00 Build 0)  -->
<!DOCTYPE svg PUBLIC "-//W3C//DTD SVG 1.1//EN" "http://www.w3.org/Graphics/SVG/1.1/DTD/svg11.dtd">
<svg version="1.1" id="Calque_1" xmlns="http://www.w3.org/2000/svg" xmlns:xlink="http://www.w3.org/1999/xlink" x="0px" y="0px"
	 width="85.04px" height="85.04px" viewBox="0 0 85.04 85.04" enable-background="new 0 0 85.04 85.04" xml:space="preserve">
<path fill="#FFFFFF" d="M51.404,60.711H35.816c-0.441,0-0.802,0.361-0.802,0.803v5.439c0,0.441,0.361,0.803,0.802,0.803h1.847
	c0.479,2.853,2.956,5.031,5.949,5.031c2.989,0,5.465-2.179,5.948-5.031h1.848c0.441,0,0.803-0.361,0.803-0.803v-5.439
	C52.207,61.068,51.846,60.711,51.404,60.711"/>
<path fill="#D1AA2B" d="M43.612,15.324c1.112,0,2.013-0.9,2.013-2.012V8.344c0-1.113-0.9-2.013-2.013-2.013S41.6,7.231,41.6,8.344
	v4.968C41.6,14.424,42.5,15.324,43.612,15.324"/>
<path fill="#D1AA2B" d="M30.39,17.392c0.374,0.646,1.048,1.006,1.745,1.006c0.339,0,0.688-0.085,1.006-0.271
	c0.964-0.557,1.292-1.788,0.735-2.748l-2.484-4.301c-0.556-0.964-1.788-1.295-2.747-0.734c-0.964,0.556-1.291,1.787-0.735,2.747
	L30.39,17.392z"/>
<path fill="#D1AA2B" d="M24.738,23.044l-4.301-2.484c-0.964-0.556-2.195-0.225-2.747,0.735c-0.557,0.964-0.225,2.195,0.734,2.747
	l4.302,2.484c0.318,0.182,0.662,0.271,1.006,0.271c0.696,0,1.371-0.361,1.745-1.006C26.029,24.831,25.702,23.6,24.738,23.044"/>
<path fill="#D1AA2B" d="M22.67,36.266c0-1.112-0.9-2.013-2.012-2.013h-4.969c-1.112,0-2.012,0.9-2.012,2.013s0.9,2.013,2.012,2.013
	h4.969C21.766,38.279,22.67,37.378,22.67,36.266"/>
<path fill="#D1AA2B" d="M22.726,46.002l-4.301,2.484c-0.964,0.557-1.291,1.787-0.734,2.748c0.374,0.645,1.049,1.006,1.745,1.006
	c0.339,0,0.688-0.085,1.006-0.271l4.301-2.484c0.964-0.557,1.291-1.787,0.734-2.748C24.917,45.773,23.689,45.441,22.726,46.002"/>
<path fill="#D1AA2B" d="M68.801,48.486l-4.302-2.484c-0.964-0.556-2.195-0.225-2.747,0.734c-0.557,0.965-0.225,2.195,0.734,2.748
	l4.301,2.484c0.318,0.182,0.663,0.271,1.007,0.271c0.696,0,1.372-0.361,1.745-1.006C70.092,50.27,69.764,49.038,68.801,48.486"/>
<path fill="#D1AA2B" d="M71.535,34.253h-4.969c-1.112,0-2.012,0.9-2.012,2.013c0,1.113,0.899,2.013,2.012,2.013h4.969
	c1.112,0,2.012-0.9,2.012-2.013C73.547,35.154,72.647,34.253,71.535,34.253"/>
<path fill="#D1AA2B" d="M63.492,26.801c0.34,0,0.688-0.085,1.007-0.271l4.302-2.484c0.963-0.557,1.29-1.788,0.734-2.748
	c-0.557-0.964-1.788-1.291-2.748-0.734l-4.301,2.484c-0.964,0.557-1.291,1.788-0.734,2.748
	C62.121,26.44,62.797,26.801,63.492,26.801"/>
<path fill="#D1AA2B" d="M54.084,18.131c0.317,0.183,0.662,0.272,1.006,0.272c0.696,0,1.371-0.361,1.745-1.006l2.483-4.301
	c0.557-0.964,0.226-2.195-0.734-2.747c-0.963-0.557-2.195-0.225-2.747,0.734l-2.483,4.301
	C52.793,16.343,53.119,17.575,54.084,18.131"/>
<path fill="#FFFFFF" d="M44.41,19.18c-5.6-0.259-10.856,2.148-14.402,6.7c-1.873,2.408-3.049,5.321-3.389,8.348
	c-0.522,4.628,0.735,9.049,3.554,12.625c2.055,2.603,3.469,5.12,4.327,7.697l0.345,1.023c0.165,0.488,0.62,0.819,1.137,0.819h15.26
	c0.514,0,0.973-0.331,1.139-0.819l0.344-1.023c0.841-2.518,2.199-4.964,4.148-7.474c1.537-1.974,2.73-4.221,3.329-6.645
	C62.877,29.595,54.763,19.651,44.41,19.18"/>
<polygon fill="#D1AA2B" points="35.4,38.774 42.997,49.123 50.594,38.774 42.997,28.424 "/>
</svg>
