<?xml version="1.0" encoding="utf-8"?>
<!-- Generator: Adobe Illustrator 16.0.0, SVG Export Plug-In . SVG Version: 6.00 Build 0)  -->
<!DOCTYPE svg PUBLIC "-//W3C//DTD SVG 1.1//EN" "http://www.w3.org/Graphics/SVG/1.1/DTD/svg11.dtd">
<svg version="1.1" id="Calque_1" xmlns="http://www.w3.org/2000/svg" xmlns:xlink="http://www.w3.org/1999/xlink" x="0px" y="0px"
	 width="85.04px" height="85.04px" viewBox="0 0 85.04 85.04" enable-background="new 0 0 85.04 85.04" xml:space="preserve">
<path fill="#FFFFFF" d="M60.059,71.384V46.572c-2.609-0.184-5.052-0.986-7.178-2.266H24.399c-1.01,0-1.831-0.821-1.831-1.832
	s0.821-1.832,1.831-1.832h24.255c-1.885-2.307-3.145-5.145-3.521-8.25H24.399c-1.01,0-1.831-0.818-1.831-1.831
	c0-1.011,0.821-1.831,1.831-1.831h20.702c0.309-2.938,1.404-5.643,3.075-7.901H16.464c-0.674,0-1.221,0.547-1.221,1.221v49.333
	c0,2.759,2.237,4.995,4.996,4.995H61.65C60.649,74.968,60.059,73.242,60.059,71.384 M50.902,68.129H24.399
	c-1.01,0-1.831-0.817-1.831-1.83s0.821-1.832,1.831-1.832h26.503c1.011,0,1.832,0.819,1.832,1.832S51.913,68.129,50.902,68.129
	 M50.902,56.219H24.399c-1.01,0-1.831-0.82-1.831-1.832c0-1.013,0.821-1.831,1.831-1.831h26.503c1.011,0,1.832,0.818,1.832,1.831
	C52.734,55.398,51.913,56.219,50.902,56.219"/>
<path fill="#D1AA2B" d="M73.712,30.429c0,6.913-5.604,12.519-12.517,12.519c-6.914,0-12.518-5.606-12.518-12.519
	c0-6.914,5.604-12.518,12.518-12.518C68.107,17.912,73.712,23.515,73.712,30.429"/>
</svg>
