<svg width="86" height="86" viewBox="0 0 86 86" fill="none" xmlns="http://www.w3.org/2000/svg">
<path d="M35.3327 26.0248C35.5277 26.4978 35.9857 26.7838 36.4677 26.7838C36.6247 26.7838 36.7847 26.7548 36.9377 26.6898C37.5657 26.4288 37.8627 25.7108 37.6027 25.0838L35.9587 21.1148C35.6987 20.4878 34.9797 20.1888 34.3527 20.4488C33.7257 20.7098 33.4277 21.4278 33.6877 22.0558L35.3327 26.0248Z" fill="#D1AA2B"/>
<path d="M48.6991 26.6908C48.8521 26.7548 49.0121 26.7848 49.1691 26.7848C49.6501 26.7848 50.1091 26.4988 50.3051 26.0258L51.9501 22.0568C52.2101 21.4288 51.9111 20.7108 51.2841 20.4498C50.6571 20.1898 49.9381 20.4888 49.6791 21.1158L48.0341 25.0848C47.7731 25.7118 48.0701 26.4298 48.6991 26.6908Z" fill="#D1AA2B"/>
<path d="M42.8188 25.5211C43.4978 25.5211 44.0488 24.9701 44.0488 24.2921V19.9961C44.0488 19.3171 43.4978 18.7671 42.8188 18.7671C42.1398 18.7671 41.5898 19.3161 41.5898 19.9961V24.2921C41.5898 24.9701 42.1408 25.5211 42.8188 25.5211Z" fill="#D1AA2B"/>
<path d="M56.0755 49.2671C55.6055 49.2671 55.3215 49.2251 55.3125 49.2161C54.8355 49.1411 54.5095 48.6891 54.5845 48.2121C54.6685 47.7341 55.1205 47.4081 55.5975 47.4831C55.7145 47.5001 57.3555 47.7261 59.2475 46.7711C60.0095 45.6821 60.4275 44.0661 60.4275 42.8861C60.4275 41.1621 59.5155 39.6301 58.1015 38.8261C57.5235 40.6591 56.2015 42.7101 53.2035 43.8831C53.0955 43.9251 52.9945 43.9411 52.8865 43.9411C52.5425 43.9411 52.2155 43.7321 52.0825 43.3891C51.9065 42.9461 52.1235 42.4431 52.5765 42.2671C54.8695 41.3721 56.2425 39.7471 56.6705 37.4541C56.5025 34.2731 53.9825 31.7281 50.9435 31.7281C50.7425 31.7531 50.6585 31.7621 50.5745 31.7701C50.2325 31.7871 49.8975 31.5941 49.7465 31.2841C48.9685 29.7021 47.4535 28.7231 45.7875 28.7231C45.0515 28.7231 44.3305 28.9151 43.6855 29.2761V44.5781C47.7125 45.0061 50.9355 48.3801 51.1115 52.4741C51.1355 52.9681 51.1115 53.4701 51.0355 53.9551H58.6285C59.6495 53.2351 59.5665 50.4391 59.0725 48.7321C57.8505 49.1741 56.7625 49.2671 56.0755 49.2671ZM48.4245 41.7391C48.2655 41.8651 48.0725 41.9321 47.8795 41.9321C47.6295 41.9321 47.3775 41.8231 47.2105 41.6141C46.9085 41.2461 46.9595 40.7011 47.3275 40.4011C48.4245 39.5051 48.9435 38.6421 48.8845 37.8301C48.7925 36.5251 47.2605 35.5871 47.2435 35.5781C46.8345 35.3361 46.6995 34.8081 46.9415 34.3981C47.1855 33.9881 47.7125 33.8451 48.1305 34.0961C48.2225 34.1461 50.4415 35.4861 50.6085 37.6871C50.7175 39.1031 49.9805 40.4581 48.4245 41.7391Z" fill="#00343A"/>
<path d="M37.0889 46.8302C38.4279 45.5492 40.1279 44.7692 41.9529 44.5772V29.2832C41.3079 28.9142 40.5879 28.7222 39.8519 28.7222C38.1859 28.7222 36.6699 29.7012 35.8999 31.2832C35.7409 31.5932 35.4059 31.7782 35.0629 31.7692C34.9789 31.7612 34.8949 31.7522 34.8199 31.7352C31.7059 31.7192 29.1359 34.2722 28.9689 37.4532C29.3959 39.7472 30.7689 41.3712 33.0709 42.2662C33.5139 42.4422 33.7319 42.9442 33.5559 43.3882C33.4229 43.7312 33.0959 43.9402 32.7529 43.9402C32.6439 43.9402 32.5439 43.9242 32.4349 43.8822C29.4379 42.7102 28.1149 40.6592 27.5379 38.8262C26.1229 39.6292 25.2109 41.1612 25.2109 42.8862C25.2109 44.0582 25.6209 45.6492 26.3659 46.7372C28.3239 47.7342 30.0159 47.4922 30.0409 47.4832C30.5189 47.3992 30.9699 47.7262 31.0539 48.2122C31.1289 48.6892 30.8109 49.1412 30.3249 49.2162C30.3169 49.2252 30.0319 49.2672 29.5639 49.2672C28.8769 49.2672 27.7969 49.1752 26.5669 48.7322C26.0729 50.4392 25.9889 53.2352 27.0099 53.9552H34.6109C34.5519 53.5872 34.5269 53.2102 34.5269 52.8342C34.5269 50.5392 35.4399 48.4122 37.0889 46.8302ZM35.0299 37.6882C35.1969 35.4872 37.4159 34.1462 37.5169 34.0972C37.9269 33.8542 38.4539 33.9892 38.6969 34.3992C38.9399 34.8092 38.8059 35.3372 38.3959 35.5792C38.3789 35.5882 36.8469 36.5262 36.7549 37.8312C36.6959 38.6432 37.2239 39.5052 38.3119 40.4012C38.6799 40.7022 38.7389 41.2472 38.4289 41.6152C38.2609 41.8242 38.0109 41.9332 37.7599 41.9332C37.5669 41.9332 37.3739 41.8662 37.2159 41.7402C35.6579 40.4582 34.9209 39.1032 35.0299 37.6882Z" fill="#00343A"/>
<path d="M39.3584 63.532C39.3584 63.807 39.5814 64.03 39.8574 64.03H40.5464C40.7304 65.119 41.6774 65.951 42.8184 65.951C43.9624 65.951 44.9074 65.119 45.0904 64.03H45.7804C46.0564 64.03 46.2794 63.807 46.2794 63.532V61.583H39.3574L39.3584 63.532Z" fill="#D1AA2B"/>
<path d="M43.1262 46.301C41.3192 46.219 39.6092 46.859 38.3052 48.105C37.0002 49.351 36.2832 51.03 36.2832 52.832C36.2832 54.313 36.7672 55.714 37.6852 56.876C38.4692 57.871 39.0102 58.834 39.3382 59.818L46.2992 59.817C46.6292 58.829 47.1682 57.869 47.9472 56.882C48.9182 55.654 49.4162 54.113 49.3472 52.546C49.2062 49.198 46.4722 46.455 43.1262 46.301Z" fill="#D1AA2B"/>
<path d="M40 53.0028L42.903 56.9578L45.806 53.0028L42.903 49.0488L40 53.0028Z" fill="white"/>
</svg>
