<?xml version="1.0" encoding="utf-8"?>
<!-- Generator: Adobe Illustrator 16.0.0, SVG Export Plug-In . SVG Version: 6.00 Build 0)  -->
<!DOCTYPE svg PUBLIC "-//W3C//DTD SVG 1.1//EN" "http://www.w3.org/Graphics/SVG/1.1/DTD/svg11.dtd">
<svg version="1.1" id="Calque_1" xmlns="http://www.w3.org/2000/svg" xmlns:xlink="http://www.w3.org/1999/xlink" x="0px" y="0px"
	 width="85.04px" height="85.04px" viewBox="0 0 85.04 85.04" enable-background="new 0 0 85.04 85.04" xml:space="preserve">
<path fill="#D1AA2B" d="M33.27,21.144h17.105c1.115,0,2.021-0.904,2.021-2.021v-4.031c0-1.116-0.905-2.021-2.021-2.021h-3.174
	c-0.604-2.418-2.777-4.221-5.379-4.221c-2.601,0-4.774,1.803-5.377,4.221H33.27c-1.116,0-2.021,0.904-2.021,2.021v4.031
	C31.249,20.239,32.153,21.144,33.27,21.144 M41.822,12.122c1.262,0,2.285,1.022,2.285,2.284c0,1.263-1.023,2.286-2.285,2.286
	c-1.262,0-2.285-1.023-2.285-2.286C39.537,13.145,40.56,12.122,41.822,12.122"/>
<path fill="#FFFFFF" d="M58.68,16.389h-3.478v2.737c0,2.661-2.156,4.816-4.816,4.816H33.272c-2.658,0-4.83-2.174-4.83-4.83v-2.724
	h-3.477c-1.876,0-3.397,1.521-3.397,3.397v40.816c0,1.875,1.521,3.397,3.397,3.397h23.151c0.093-7.823,6.233-14.215,13.961-14.723
	V19.786C62.077,17.91,60.556,16.389,58.68,16.389 M44.11,56.284H36.85c-0.774,0-1.4-0.628-1.4-1.402s0.626-1.4,1.4-1.4h7.261
	c0.774,0,1.403,0.626,1.403,1.4S44.885,56.284,44.11,56.284 M49.771,48.435H36.85c-0.774,0-1.4-0.626-1.4-1.4s0.626-1.4,1.4-1.4
	h12.921c0.774,0,1.402,0.626,1.402,1.4S50.545,48.435,49.771,48.435 M53.588,40.588H36.85c-0.774,0-1.4-0.626-1.4-1.4
	c0-0.773,0.626-1.402,1.4-1.402h16.738c0.774,0,1.403,0.629,1.403,1.402C54.991,39.962,54.362,40.588,53.588,40.588 M53.588,32.741
	H36.85c-0.774,0-1.4-0.629-1.4-1.403c0-0.773,0.626-1.4,1.4-1.4h16.738c0.774,0,1.403,0.627,1.403,1.4
	C54.991,32.112,54.362,32.741,53.588,32.741"/>
<path fill="#D1AA2B" d="M63.052,52.057c-6.688,0-12.128,5.44-12.128,12.127c0,6.688,5.44,12.128,12.128,12.128
	c6.687,0,12.126-5.439,12.126-12.128C75.178,57.497,69.738,52.057,63.052,52.057 M68.063,65.585h-5.012
	c-0.774,0-1.401-0.627-1.401-1.401v-6.709c0-0.773,0.627-1.401,1.401-1.401s1.4,0.628,1.4,1.401v5.308h3.611
	c0.774,0,1.401,0.628,1.401,1.401C69.465,64.958,68.838,65.585,68.063,65.585"/>
</svg>
