<?xml version="1.0" encoding="utf-8"?>
<!-- Generator: Adobe Illustrator 16.0.0, SVG Export Plug-In . SVG Version: 6.00 Build 0)  -->
<!DOCTYPE svg PUBLIC "-//W3C//DTD SVG 1.1//EN" "http://www.w3.org/Graphics/SVG/1.1/DTD/svg11.dtd">
<svg version="1.1" id="Calque_1" xmlns="http://www.w3.org/2000/svg" xmlns:xlink="http://www.w3.org/1999/xlink" x="0px" y="0px"
	 width="85.04px" height="85.04px" viewBox="0 0 85.04 85.04" enable-background="new 0 0 85.04 85.04" xml:space="preserve">
<path fill="#D1AA2B" d="M32.333,26.556h3.375c0.982,0,1.778-0.797,1.778-1.779v-7.475c0-0.981-0.796-1.778-1.778-1.778h-3.375
	c-0.982,0-1.778,0.796-1.778,1.778v7.475C30.555,25.759,31.352,26.556,32.333,26.556"/>
<path fill="#D1AA2B" d="M54.473,26.556h3.375c0.982,0,1.779-0.797,1.779-1.779v-7.475c0-0.981-0.797-1.778-1.779-1.778h-3.375
	c-0.981,0-1.779,0.796-1.779,1.778v7.475C52.693,25.759,53.491,26.556,54.473,26.556"/>
<path fill="#FFFFFF" d="M72.499,38.027v23.787c0,4.318-3.531,7.85-7.851,7.85h-39.12c-4.317,0-7.849-3.531-7.849-7.85V38.027H72.499
	z"/>
<path fill="#D1AA2B" d="M64.648,20.883h-1.463v3.898c0,2.945-2.397,5.342-5.324,5.342h-3.386c-2.964,0-5.361-2.397-5.361-5.342
	v-3.898h-8.051v3.898c0,2.945-2.397,5.342-5.361,5.342h-3.367c-2.946,0-5.343-2.397-5.343-5.342v-3.898h-1.464
	c-4.318,0-7.849,3.531-7.849,7.85v5.727h54.818v-5.727C72.498,24.414,68.967,20.883,64.648,20.883"/>
<polygon fill="#D1AA2B" points="38.041,53.902 45.059,63.463 52.077,53.902 45.059,44.342 "/>
</svg>
