<svg width="86" height="86" viewBox="0 0 86 86" fill="none" xmlns="http://www.w3.org/2000/svg">
<path d="M32.3327 26.5559H35.7077C36.6897 26.5559 37.4857 25.7589 37.4857 24.7769V17.3019C37.4857 16.3209 36.6897 15.5239 35.7077 15.5239H32.3327C31.3507 15.5239 30.5547 16.3199 30.5547 17.3019V24.7769C30.5547 25.7589 31.3517 26.5559 32.3327 26.5559Z" fill="#D1AA2B"/>
<path d="M54.4724 26.5559H57.8474C58.8294 26.5559 59.6264 25.7589 59.6264 24.7769V17.3019C59.6264 16.3209 58.8294 15.5239 57.8474 15.5239H54.4724C53.4914 15.5239 52.6934 16.3199 52.6934 17.3019V24.7769C52.6924 25.7589 53.4904 26.5559 54.4724 26.5559Z" fill="#D1AA2B"/>
<path d="M72.4997 38.0269V61.8139C72.4997 66.1319 68.9687 69.6639 64.6487 69.6639H25.5287C21.2117 69.6639 17.6797 66.1329 17.6797 61.8139V38.0269H72.4997Z" fill="#00343A"/>
<path d="M64.6487 20.8828H63.1857V24.7808C63.1857 27.7258 60.7887 30.1228 57.8617 30.1228H54.4757C51.5117 30.1228 49.1147 27.7258 49.1147 24.7808V20.8828H41.0637V24.7808C41.0637 27.7258 38.6667 30.1228 35.7027 30.1228H32.3357C29.3897 30.1228 26.9927 27.7258 26.9927 24.7808V20.8828H25.5287C21.2107 20.8828 17.6797 24.4138 17.6797 28.7328V34.4598H72.4977V28.7328C72.4987 24.4138 68.9677 20.8828 64.6487 20.8828Z" fill="#D1AA2B"/>
<path d="M38.041 53.9018L45.059 63.4628L52.077 53.9018L45.059 44.3418L38.041 53.9018Z" fill="#D1AA2B"/>
</svg>
