<svg width="86" height="86" viewBox="0 0 86 86" fill="none" xmlns="http://www.w3.org/2000/svg">
<path d="M73.9523 28.4011V58.7641C73.9523 61.8381 71.4583 64.3351 68.3813 64.3351H17.6813C14.6073 64.3351 12.1113 61.8381 12.1113 58.7641V28.4011C12.1113 28.0451 12.1443 27.6951 12.2103 27.3531C12.2913 26.9001 12.4273 26.4671 12.6113 26.0591C13.6003 24.2251 15.5413 22.9041 17.8513 22.6621H17.8553H68.2093H68.2133C70.5223 22.9051 72.4633 24.2251 73.4533 26.0591C73.6373 26.4671 73.7723 26.9011 73.8533 27.3531C73.9193 27.6951 73.9523 28.0451 73.9523 28.4011Z" fill="#00343A"/>
<path d="M73.8539 27.3541L46.5119 43.5871C44.4039 44.8441 41.6679 44.8441 39.5539 43.5871L12.2109 27.3541C12.2919 26.9011 12.4279 26.4681 12.6119 26.0601C13.6009 24.2261 15.5419 22.9051 17.8519 22.6631H17.8559C18.1059 22.6371 18.3629 22.6221 18.6209 22.6221H67.4449C67.7019 22.6221 67.9599 22.6371 68.2099 22.6631H68.2139C70.5229 22.9061 72.4639 24.2261 73.4539 26.0601C73.6369 26.4671 73.7719 26.9011 73.8539 27.3541Z" fill="#D1AA2B"/>
<path d="M63.1855 56.2902L66.4925 60.7952L69.7995 56.2902L66.4925 51.7852L63.1855 56.2902Z" fill="#D1AA2B"/>
</svg>
