<?xml version="1.0" encoding="utf-8"?>
<!-- Generator: Adobe Illustrator 16.0.0, SVG Export Plug-In . SVG Version: 6.00 Build 0)  -->
<!DOCTYPE svg PUBLIC "-//W3C//DTD SVG 1.1//EN" "http://www.w3.org/Graphics/SVG/1.1/DTD/svg11.dtd">
<svg version="1.1" id="Calque_1" xmlns="http://www.w3.org/2000/svg" xmlns:xlink="http://www.w3.org/1999/xlink" x="0px" y="0px"
	 width="85.04px" height="85.04px" viewBox="0 0 85.04 85.04" enable-background="new 0 0 85.04 85.04" xml:space="preserve">
<path fill="#FFFFFF" d="M54.107,26.784v13.773c-3.094,0.533-5.459,3.262-5.459,6.54c0,1.648,0.598,3.155,1.585,4.316
	c-2.928,1.029-5.036,3.656-5.406,6.764l-0.004,0.027l-0.04,0.474H25.622c-1.263,0-2.283-1.033-2.283-2.306V28.535
	c0-2.239,1.797-4.055,4.015-4.055h24.47c1.177,0,2.145,0.898,2.269,2.05C54.104,26.614,54.107,26.698,54.107,26.784"/>
<path fill="#D1AA2B" d="M40.064,33.116c0,0.73,0.595,1.325,1.325,1.325h4.867c0.729,0,1.325-0.595,1.325-1.325
	c0-0.741-0.596-1.336-1.325-1.336H41.39C40.66,31.78,40.064,32.375,40.064,33.116"/>
<path fill="#D1AA2B" d="M46.257,37.659H41.39c-0.73,0-1.325,0.595-1.325,1.336c0,0.73,0.595,1.325,1.325,1.325h4.867
	c0.73,0,1.325-0.595,1.325-1.325C47.582,38.254,46.987,37.659,46.257,37.659"/>
<path fill="#D1AA2B" d="M46.257,43.538H41.39c-0.73,0-1.325,0.595-1.325,1.335c0,0.73,0.595,1.326,1.325,1.326h4.867
	c0.73,0,1.325-0.596,1.325-1.326C47.582,44.133,46.987,43.538,46.257,43.538"/>
<path fill="#D1AA2B" d="M46.257,49.416H41.39c-0.73,0-1.325,0.596-1.325,1.336c0,0.73,0.595,1.326,1.325,1.326h4.867
	c0.73,0,1.325-0.596,1.325-1.326C47.582,50.012,46.987,49.416,46.257,49.416"/>
<path fill="#D1AA2B" d="M45.031,23.636h-3.295v-1.477c0-1.507-1.012-2.883-2.49-3.192c-2.026-0.423-3.83,1.132-3.83,3.091v1.578
	h-3.296c-0.326,0-0.591,0.265-0.591,0.593v3.391c0,0.326,0.265,0.591,0.591,0.591h12.911c0.326,0,0.592-0.265,0.592-0.591v-3.391
	C45.623,23.901,45.357,23.636,45.031,23.636 M38.577,20.902c0.633,0,1.151,0.52,1.151,1.153c0,0.635-0.518,1.153-1.151,1.153
	c-0.635,0-1.153-0.518-1.153-1.153C37.424,21.422,37.942,20.902,38.577,20.902"/>
<path fill="#FFFFFF" d="M64.213,58.422c-0.319-2.65-2.18-4.759-4.614-5.518c-0.239-0.072-0.495,0.067-0.578,0.304l-2.482,7.103
	l-0.569-4.643h0.379c0.229,0,0.415-0.188,0.415-0.416v-1.276c0-0.229-0.186-0.413-0.414-0.413h-2.08
	c-0.229,0-0.414,0.184-0.414,0.413v1.276c0,0.229,0.185,0.416,0.414,0.416h0.379l-0.569,4.643l-2.481-7.103
	c-0.082-0.236-0.339-0.376-0.578-0.304c-2.434,0.759-4.294,2.867-4.613,5.518l-0.323,3.805c-0.094,1.104,0.776,2.054,1.885,2.055
	l14.682,0.016c1.11,0,1.983-0.949,1.889-2.055L64.213,58.422z"/>
<path fill="#FFFFFF" d="M50.287,47.133c0,2.781,2.255,5.036,5.036,5.036s5.036-2.255,5.036-5.036s-2.255-5.037-5.036-5.037
	S50.287,44.352,50.287,47.133"/>
<polygon fill="#D1AA2B" points="29.188,37.03 32.5,41.542 35.812,37.03 32.5,32.519 "/>
<polygon fill="#D1AA2B" points="29.188,47.031 32.5,51.543 35.812,47.031 32.5,42.52 "/>
</svg>
