<svg width="86" height="86" viewBox="0 0 86 86" fill="none" xmlns="http://www.w3.org/2000/svg">
<path d="M68.4614 58.172C65.4904 57.936 62.8174 57.301 60.4954 56.084C58.3544 57.458 55.8084 58.255 53.0754 58.255H42.4444C38.5694 58.255 35.0684 56.652 32.5684 54.074C32.6304 54.074 32.6914 54.074 32.7534 54.074H43.3844C51.5934 54.074 58.2714 47.395 58.2714 39.186C58.2714 36.241 57.4214 33.426 55.8394 31.022C62.1104 32.302 66.8294 37.849 66.8294 44.5C66.8294 45.993 66.5904 47.434 66.1504 48.78C65.7094 50.129 65.0654 51.384 64.2554 52.511C65.1704 54.588 66.7284 56.376 68.6534 57.574C68.9414 57.754 68.7974 58.199 68.4614 58.172Z" fill="#D1AA2B"/>
<path d="M53.1092 29.4601C50.6202 26.9711 47.1812 25.4321 43.3822 25.4321H32.7522C25.1552 25.4321 18.9982 31.5901 18.9982 39.1861C18.9982 40.6801 19.2372 42.1191 19.6772 43.4651C20.1182 44.8131 20.7612 46.0691 21.5712 47.1971C20.6562 49.2751 19.0982 51.0631 17.1732 52.2611C16.8862 52.4401 17.0302 52.8851 17.3662 52.8581C20.3372 52.6231 23.0102 51.9881 25.3322 50.7711C27.4732 52.1441 30.0202 52.9411 32.7522 52.9411H43.3832C50.9802 52.9411 57.1372 46.7831 57.1372 39.1861C57.1372 35.3881 55.5982 31.9491 53.1092 29.4601ZM31.5132 42.0031L29.5022 39.2641L31.5132 36.5241L33.5232 39.2641L31.5132 42.0031ZM36.9992 42.0031L34.9882 39.2641L36.9992 36.5231L39.0092 39.2631L36.9992 42.0031ZM42.4862 42.0031L40.4752 39.2641L42.4862 36.5241L44.4972 39.2641L42.4862 42.0031Z" fill="#00343A"/>
</svg>
