<?xml version="1.0" encoding="utf-8"?>
<!-- Generator: Adobe Illustrator 16.0.0, SVG Export Plug-In . SVG Version: 6.00 Build 0)  -->
<!DOCTYPE svg PUBLIC "-//W3C//DTD SVG 1.1//EN" "http://www.w3.org/Graphics/SVG/1.1/DTD/svg11.dtd">
<svg version="1.1" id="Calque_1" xmlns="http://www.w3.org/2000/svg" xmlns:xlink="http://www.w3.org/1999/xlink" x="0px" y="0px"
	 width="85.04px" height="85.04px" viewBox="0 0 85.04 85.04" enable-background="new 0 0 85.04 85.04" xml:space="preserve">
<path fill="#FFFFFF" d="M26.522,32.598h38.442v-2.824c0-1.474-1.192-2.667-2.666-2.667H38.881c-0.878,0-1.709-0.439-2.211-1.176
	l-3.121-4.673c-0.486-0.738-1.318-1.177-2.211-1.177H16.405c-1.474,0-2.667,1.191-2.667,2.666V53.74l6.651-16.955
	C21.393,34.245,23.792,32.598,26.522,32.598"/>
<path fill="#FFFFFF" d="M72.027,36.532H26.512c-1.083,0-2.063,0.667-2.459,1.688l-8.899,22.632
	c-0.667,1.752,0.605,3.648,2.501,3.648h18.382h16.381h10.732c1.104,0,2.084-0.688,2.479-1.709l8.898-22.633
	C75.195,38.407,73.924,36.532,72.027,36.532"/>
<polygon fill="#D1AA2B" points="54.127,53.625 58.231,59.216 62.336,53.625 58.231,48.032 "/>
</svg>
