<?xml version="1.0" encoding="utf-8"?>
<!-- Generator: Adobe Illustrator 16.0.0, SVG Export Plug-In . SVG Version: 6.00 Build 0)  -->
<!DOCTYPE svg PUBLIC "-//W3C//DTD SVG 1.1//EN" "http://www.w3.org/Graphics/SVG/1.1/DTD/svg11.dtd">
<svg version="1.1" id="Calque_1" xmlns="http://www.w3.org/2000/svg" xmlns:xlink="http://www.w3.org/1999/xlink" x="0px" y="0px"
	 width="85.04px" height="85.04px" viewBox="0 0 85.04 85.04" enable-background="new 0 0 85.04 85.04" xml:space="preserve">
<path fill="#D1AA2B" d="M35.333,26.025c0.195,0.473,0.653,0.759,1.135,0.759c0.157,0,0.317-0.029,0.47-0.094
	c0.628-0.261,0.925-0.979,0.665-1.606l-1.644-3.969c-0.26-0.627-0.979-0.926-1.606-0.666c-0.627,0.261-0.925,0.979-0.665,1.607
	L35.333,26.025z"/>
<path fill="#D1AA2B" d="M48.699,26.691c0.153,0.064,0.313,0.094,0.47,0.094c0.481,0,0.94-0.286,1.136-0.759l1.645-3.969
	c0.26-0.628-0.039-1.346-0.666-1.607c-0.627-0.26-1.346,0.039-1.605,0.666l-1.645,3.969C47.773,25.712,48.07,26.43,48.699,26.691"/>
<path fill="#D1AA2B" d="M42.818,25.521c0.679,0,1.23-0.551,1.23-1.229v-4.296c0-0.679-0.551-1.229-1.23-1.229
	c-0.679,0-1.229,0.549-1.229,1.229v4.296C41.589,24.97,42.14,25.521,42.818,25.521"/>
<path fill="#FFFFFF" d="M56.075,49.267c-0.47,0-0.754-0.042-0.763-0.051c-0.477-0.075-0.803-0.527-0.728-1.004
	c0.084-0.478,0.536-0.804,1.013-0.729c0.117,0.017,1.758,0.243,3.65-0.712c0.762-1.089,1.18-2.705,1.18-3.885
	c0-1.724-0.912-3.256-2.326-4.06c-0.578,1.833-1.9,3.884-4.898,5.057c-0.108,0.042-0.209,0.058-0.317,0.058
	c-0.344,0-0.671-0.209-0.804-0.552c-0.176-0.443,0.041-0.946,0.494-1.122c2.293-0.895,3.666-2.52,4.094-4.813
	c-0.168-3.181-2.688-5.726-5.727-5.726c-0.201,0.025-0.285,0.034-0.369,0.042c-0.342,0.017-0.677-0.176-0.828-0.486
	c-0.778-1.582-2.293-2.561-3.959-2.561c-0.736,0-1.457,0.192-2.102,0.553v15.302c4.027,0.428,7.25,3.802,7.426,7.896
	c0.024,0.494,0,0.996-0.076,1.481h7.593c1.021-0.72,0.938-3.516,0.444-5.223C57.85,49.174,56.762,49.267,56.075,49.267
	 M48.424,41.739c-0.159,0.126-0.352,0.193-0.545,0.193c-0.25,0-0.502-0.109-0.669-0.318c-0.302-0.368-0.251-0.913,0.117-1.213
	c1.097-0.896,1.616-1.759,1.557-2.571c-0.092-1.305-1.624-2.243-1.641-2.252c-0.409-0.242-0.544-0.77-0.302-1.18
	c0.244-0.41,0.771-0.553,1.189-0.302c0.092,0.05,2.311,1.39,2.478,3.591C50.717,39.103,49.98,40.458,48.424,41.739"/>
<path fill="#FFFFFF" d="M37.089,46.83c1.339-1.281,3.039-2.061,4.864-2.253V29.283c-0.645-0.369-1.365-0.561-2.101-0.561
	c-1.666,0-3.182,0.979-3.952,2.561c-0.159,0.31-0.494,0.495-0.837,0.486c-0.084-0.008-0.168-0.017-0.243-0.034
	c-3.114-0.016-5.684,2.537-5.851,5.718c0.427,2.294,1.8,3.918,4.102,4.813c0.443,0.176,0.661,0.678,0.485,1.122
	c-0.133,0.343-0.46,0.552-0.803,0.552c-0.109,0-0.209-0.016-0.318-0.058c-2.997-1.172-4.32-3.223-4.897-5.056
	c-1.415,0.803-2.327,2.335-2.327,4.06c0,1.172,0.41,2.763,1.155,3.851c1.958,0.997,3.65,0.755,3.675,0.746
	c0.478-0.084,0.929,0.243,1.013,0.729c0.075,0.477-0.243,0.929-0.729,1.004c-0.008,0.009-0.293,0.051-0.761,0.051
	c-0.687,0-1.767-0.092-2.997-0.535c-0.494,1.707-0.578,4.503,0.443,5.223h7.601c-0.059-0.368-0.084-0.745-0.084-1.121
	C34.527,50.539,35.44,48.412,37.089,46.83 M35.03,37.688c0.167-2.201,2.386-3.542,2.487-3.591c0.41-0.243,0.937-0.108,1.18,0.302
	c0.243,0.41,0.109,0.938-0.301,1.18c-0.017,0.009-1.549,0.947-1.641,2.252c-0.059,0.812,0.469,1.674,1.557,2.57
	c0.368,0.301,0.427,0.846,0.117,1.214c-0.168,0.209-0.418,0.318-0.669,0.318c-0.193,0-0.386-0.067-0.544-0.193
	C35.658,40.458,34.921,39.103,35.03,37.688"/>
<path fill="#D1AA2B" d="M39.359,63.532c0,0.275,0.223,0.498,0.499,0.498h0.689c0.184,1.089,1.131,1.921,2.272,1.921
	c1.144,0,2.089-0.832,2.272-1.921h0.69c0.276,0,0.499-0.223,0.499-0.498v-1.949h-6.922V63.532z"/>
<path fill="#D1AA2B" d="M43.127,46.301c-1.807-0.082-3.517,0.558-4.821,1.804c-1.305,1.246-2.022,2.925-2.022,4.727
	c0,1.481,0.484,2.882,1.402,4.044c0.784,0.995,1.325,1.958,1.653,2.942l6.961-0.001c0.33-0.988,0.869-1.948,1.648-2.935
	c0.971-1.228,1.469-2.769,1.4-4.336C49.207,49.198,46.473,46.455,43.127,46.301"/>
<polygon fill="#FFFFFF" points="40,53.003 42.903,56.958 45.806,53.003 42.903,49.049 "/>
</svg>
