<svg width="86" height="86" viewBox="0 0 86 86" fill="none" xmlns="http://www.w3.org/2000/svg">
<path d="M33.269 21.1441H50.374C51.489 21.1441 52.395 20.2401 52.395 19.1231V15.0921C52.395 13.9761 51.49 13.0711 50.374 13.0711H47.2C46.596 10.6531 44.423 8.8501 41.821 8.8501C39.22 8.8501 37.047 10.6531 36.444 13.0711H33.269C32.153 13.0711 31.248 13.9751 31.248 15.0921V19.1231C31.248 20.2391 32.152 21.1441 33.269 21.1441ZM41.821 12.1221C43.083 12.1221 44.106 13.1441 44.106 14.4061C44.106 15.6691 43.083 16.6921 41.821 16.6921C40.559 16.6921 39.536 15.6691 39.536 14.4061C39.536 13.1451 40.559 12.1221 41.821 12.1221Z" fill="#D1AA2B"/>
<path d="M58.6804 16.3892H55.2024V19.1262C55.2024 21.7872 53.0464 23.9422 50.3864 23.9422H33.2724C30.6144 23.9422 28.4424 21.7682 28.4424 19.1122V16.3882H24.9654C23.0894 16.3882 21.5684 17.9092 21.5684 19.7852V60.6012C21.5684 62.4762 23.0894 63.9982 24.9654 63.9982H48.1164C48.2094 56.1752 54.3494 49.7832 62.0774 49.2752V19.7862C62.0774 17.9102 60.5564 16.3892 58.6804 16.3892ZM44.1104 56.2842H36.8504C36.0764 56.2842 35.4504 55.6562 35.4504 54.8822C35.4504 54.1082 36.0764 53.4822 36.8504 53.4822H44.1114C44.8854 53.4822 45.5144 54.1082 45.5144 54.8822C45.5144 55.6562 44.8854 56.2842 44.1104 56.2842ZM49.7714 48.4352H36.8504C36.0764 48.4352 35.4504 47.8092 35.4504 47.0352C35.4504 46.2612 36.0764 45.6352 36.8504 45.6352H49.7714C50.5454 45.6352 51.1734 46.2612 51.1734 47.0352C51.1734 47.8092 50.5454 48.4352 49.7714 48.4352ZM53.5884 40.5882H36.8504C36.0764 40.5882 35.4504 39.9622 35.4504 39.1882C35.4504 38.4152 36.0764 37.7862 36.8504 37.7862H53.5884C54.3624 37.7862 54.9914 38.4152 54.9914 39.1882C54.9914 39.9622 54.3624 40.5882 53.5884 40.5882ZM53.5884 32.7412H36.8504C36.0764 32.7412 35.4504 32.1122 35.4504 31.3382C35.4504 30.5652 36.0764 29.9382 36.8504 29.9382H53.5884C54.3624 29.9382 54.9914 30.5652 54.9914 31.3382C54.9914 32.1122 54.3624 32.7412 53.5884 32.7412Z" fill="#00343A"/>
<path d="M63.0518 52.0571C56.3638 52.0571 50.9238 57.4971 50.9238 64.1841C50.9238 70.8721 56.3638 76.3121 63.0518 76.3121C69.7388 76.3121 75.1778 70.8731 75.1778 64.1841C75.1778 57.4971 69.7378 52.0571 63.0518 52.0571ZM68.0628 65.5851H63.0508C62.2768 65.5851 61.6498 64.9581 61.6498 64.1841V57.4751C61.6498 56.7021 62.2768 56.0741 63.0508 56.0741C63.8248 56.0741 64.4508 56.7021 64.4508 57.4751V62.7831H68.0618C68.8358 62.7831 69.4628 63.4111 69.4628 64.1841C69.4648 64.9581 68.8378 65.5851 68.0628 65.5851Z" fill="#D1AA2B"/>
</svg>
