<svg width="86" height="86" viewBox="0 0 86 86" fill="none" xmlns="http://www.w3.org/2000/svg">
<path d="M26.5223 32.5981H64.9643V29.7741C64.9643 28.3001 63.7723 27.1071 62.2983 27.1071H38.8813C38.0033 27.1071 37.1723 26.6681 36.6703 25.9311L33.5493 21.2581C33.0633 20.5201 32.2313 20.0811 31.3383 20.0811H16.4053C14.9313 20.0811 13.7383 21.2721 13.7383 22.7471V53.7401L20.3893 36.7851C21.3933 34.2451 23.7923 32.5981 26.5223 32.5981Z" fill="#00343A"/>
<path d="M72.027 36.5322H26.512C25.429 36.5322 24.449 37.1992 24.053 38.2202L15.154 60.8522C14.487 62.6042 15.759 64.5002 17.655 64.5002H36.037H52.418H63.15C64.254 64.5002 65.234 63.8122 65.629 62.7912L74.527 40.1582C75.195 38.4072 73.924 36.5322 72.027 36.5322Z" fill="#00343A"/>
<path d="M54.127 53.6252L58.231 59.2162L62.336 53.6252L58.231 48.0322L54.127 53.6252Z" fill="#D1AA2B"/>
</svg>
