<?xml version="1.0" encoding="utf-8"?>
<!-- Generator: Adobe Illustrator 16.0.0, SVG Export Plug-In . SVG Version: 6.00 Build 0)  -->
<!DOCTYPE svg PUBLIC "-//W3C//DTD SVG 1.1//EN" "http://www.w3.org/Graphics/SVG/1.1/DTD/svg11.dtd">
<svg version="1.1" id="Calque_1" xmlns="http://www.w3.org/2000/svg" xmlns:xlink="http://www.w3.org/1999/xlink" x="0px" y="0px"
	 width="85.04px" height="85.04px" viewBox="0 0 85.04 85.04" enable-background="new 0 0 85.04 85.04" xml:space="preserve">
<path fill="#D1AA2B" d="M68.462,58.172c-2.971-0.236-5.644-0.871-7.966-2.088c-2.141,1.374-4.687,2.171-7.42,2.171H42.445
	c-3.875,0-7.376-1.603-9.876-4.181c0.062,0,0.123,0,0.185,0h10.631c8.209,0,14.887-6.679,14.887-14.888
	c0-2.945-0.85-5.76-2.432-8.164C62.111,32.302,66.83,37.849,66.83,44.5c0,1.493-0.239,2.934-0.679,4.28
	c-0.441,1.349-1.085,2.604-1.895,3.731c0.915,2.077,2.473,3.865,4.398,5.063C68.942,57.754,68.798,58.199,68.462,58.172"/>
<path fill="#FFFFFF" d="M53.11,29.46c-2.489-2.489-5.928-4.028-9.727-4.028H32.753c-7.597,0-13.754,6.158-13.754,13.754
	c0,1.494,0.239,2.933,0.679,4.279c0.441,1.348,1.084,2.604,1.894,3.732c-0.915,2.078-2.473,3.866-4.398,5.064
	c-0.287,0.179-0.143,0.624,0.193,0.597c2.971-0.235,5.644-0.87,7.966-2.087c2.141,1.373,4.688,2.17,7.42,2.17h10.631
	c7.597,0,13.754-6.158,13.754-13.755C57.138,35.388,55.599,31.949,53.11,29.46 M31.514,42.003l-2.011-2.739l2.011-2.74l2.01,2.74
	L31.514,42.003z M37,42.003l-2.011-2.739L37,36.523l2.01,2.74L37,42.003z M42.487,42.003l-2.011-2.739l2.011-2.74l2.011,2.74
	L42.487,42.003z"/>
</svg>
