<svg width="86" height="86" viewBox="0 0 86 86" fill="none" xmlns="http://www.w3.org/2000/svg">
<path d="M54.1078 26.784V40.557C51.0138 41.09 48.6488 43.819 48.6488 47.097C48.6488 48.745 49.2468 50.252 50.2338 51.413C47.3058 52.442 45.1978 55.069 44.8278 58.177L44.8238 58.204L44.7838 58.678H25.6228C24.3598 58.678 23.3398 57.645 23.3398 56.372V28.535C23.3398 26.296 25.1368 24.48 27.3548 24.48H51.8248C53.0018 24.48 53.9698 25.378 54.0938 26.53C54.1048 26.614 54.1078 26.698 54.1078 26.784Z" fill="#00343A"/>
<path d="M40.0645 33.1158C40.0645 33.8458 40.6595 34.4408 41.3895 34.4408H46.2565C46.9855 34.4408 47.5815 33.8458 47.5815 33.1158C47.5815 32.3748 46.9855 31.7798 46.2565 31.7798H41.3905C40.6605 31.7798 40.0645 32.3748 40.0645 33.1158Z" fill="#D1AA2B"/>
<path d="M46.2565 37.6592H41.3895C40.6595 37.6592 40.0645 38.2542 40.0645 38.9952C40.0645 39.7252 40.6595 40.3202 41.3895 40.3202H46.2565C46.9865 40.3202 47.5815 39.7252 47.5815 38.9952C47.5815 38.2542 46.9865 37.6592 46.2565 37.6592Z" fill="#D1AA2B"/>
<path d="M46.2565 43.5381H41.3895C40.6595 43.5381 40.0645 44.1331 40.0645 44.8731C40.0645 45.6031 40.6595 46.1991 41.3895 46.1991H46.2565C46.9865 46.1991 47.5815 45.6031 47.5815 44.8731C47.5815 44.1331 46.9865 43.5381 46.2565 43.5381Z" fill="#D1AA2B"/>
<path d="M46.2565 49.416H41.3895C40.6595 49.416 40.0645 50.012 40.0645 50.752C40.0645 51.482 40.6595 52.078 41.3895 52.078H46.2565C46.9865 52.078 47.5815 51.482 47.5815 50.752C47.5815 50.012 46.9865 49.416 46.2565 49.416Z" fill="#D1AA2B"/>
<path d="M45.0313 23.6359H41.7363V22.1589C41.7363 20.6519 40.7243 19.2759 39.2463 18.9669C37.2203 18.5439 35.4163 20.0989 35.4163 22.0579V23.6359H32.1203C31.7943 23.6359 31.5293 23.9009 31.5293 24.2289V27.6199C31.5293 27.9459 31.7943 28.2109 32.1203 28.2109H45.0313C45.3573 28.2109 45.6233 27.9459 45.6233 27.6199V24.2289C45.6233 23.9009 45.3573 23.6359 45.0313 23.6359ZM38.5773 20.9019C39.2103 20.9019 39.7283 21.4219 39.7283 22.0549C39.7283 22.6899 39.2103 23.2079 38.5773 23.2079C37.9423 23.2079 37.4243 22.6899 37.4243 22.0549C37.4243 21.4219 37.9423 20.9019 38.5773 20.9019Z" fill="#D1AA2B"/>
<path d="M64.2131 58.4218C63.8941 55.7718 62.0331 53.6628 59.5991 52.9038C59.3601 52.8318 59.1041 52.9708 59.0211 53.2078L56.5391 60.3108L55.9701 55.6678H56.3491C56.5781 55.6678 56.7641 55.4798 56.7641 55.2518V53.9758C56.7641 53.7468 56.5781 53.5628 56.3501 53.5628H54.2701C54.0411 53.5628 53.8561 53.7468 53.8561 53.9758V55.2518C53.8561 55.4808 54.0411 55.6678 54.2701 55.6678H54.6491L54.0801 60.3108L51.5991 53.2078C51.5171 52.9718 51.2601 52.8318 51.0211 52.9038C48.5871 53.6628 46.7271 55.7708 46.4081 58.4218L46.0851 62.2268C45.9911 63.3308 46.8611 64.2808 47.9701 64.2818L62.6521 64.2978C63.7621 64.2978 64.6351 63.3488 64.5411 62.2428L64.2131 58.4218Z" fill="#00343A"/>
<path d="M50.2871 47.1332C50.2871 49.9142 52.5421 52.1692 55.3231 52.1692C58.1041 52.1692 60.3591 49.9142 60.3591 47.1332C60.3591 44.3522 58.1041 42.0962 55.3231 42.0962C52.5421 42.0962 50.2871 44.3522 50.2871 47.1332Z" fill="#00343A"/>
<path d="M29.1875 37.03L32.4995 41.542L35.8115 37.03L32.4995 32.519L29.1875 37.03Z" fill="#D1AA2B"/>
<path d="M29.1875 47.031L32.4995 51.543L35.8115 47.031L32.4995 42.52L29.1875 47.031Z" fill="#D1AA2B"/>
</svg>
