<svg width="86" height="86" viewBox="0 0 86 86" fill="none" xmlns="http://www.w3.org/2000/svg">
<path d="M51.4037 60.7109H35.8157C35.3747 60.7109 35.0137 61.0719 35.0137 61.5139V66.9529C35.0137 67.3939 35.3747 67.7559 35.8157 67.7559H37.6627C38.1417 70.6089 40.6187 72.7869 43.6117 72.7869C46.6007 72.7869 49.0767 70.6079 49.5597 67.7559H51.4077C51.8487 67.7559 52.2107 67.3949 52.2107 66.9529V61.5139C52.2067 61.0679 51.8457 60.7109 51.4037 60.7109Z" fill="#00343A"/>
<path d="M43.6116 15.3241C44.7236 15.3241 45.6246 14.4241 45.6246 13.3121V8.34405C45.6246 7.23105 44.7246 6.33105 43.6116 6.33105C42.4986 6.33105 41.5996 7.23105 41.5996 8.34405V13.3121C41.5996 14.4241 42.4996 15.3241 43.6116 15.3241Z" fill="#D1AA2B"/>
<path d="M30.3895 17.3921C30.7635 18.0381 31.4375 18.3981 32.1345 18.3981C32.4735 18.3981 32.8225 18.3131 33.1405 18.1271C34.1045 17.5701 34.4325 16.3391 33.8755 15.3791L31.3915 11.0781C30.8355 10.1141 29.6035 9.78308 28.6445 10.3441C27.6805 10.9001 27.3535 12.1311 27.9095 13.0911L30.3895 17.3921Z" fill="#D1AA2B"/>
<path d="M24.7383 23.044L20.4373 20.56C19.4733 20.004 18.2423 20.335 17.6903 21.295C17.1333 22.259 17.4653 23.49 18.4243 24.042L22.7263 26.526C23.0443 26.708 23.3883 26.797 23.7323 26.797C24.4283 26.797 25.1033 26.436 25.4773 25.791C26.0293 24.831 25.7023 23.6 24.7383 23.044Z" fill="#D1AA2B"/>
<path d="M22.6707 36.2659C22.6707 35.1539 21.7707 34.2529 20.6587 34.2529H15.6897C14.5777 34.2529 13.6777 35.1529 13.6777 36.2659C13.6777 37.3789 14.5777 38.2789 15.6897 38.2789H20.6587C21.7667 38.2789 22.6707 37.3779 22.6707 36.2659Z" fill="#D1AA2B"/>
<path d="M22.7264 46.002L18.4254 48.486C17.4614 49.043 17.1344 50.273 17.6914 51.234C18.0654 51.879 18.7404 52.24 19.4364 52.24C19.7754 52.24 20.1244 52.155 20.4424 51.969L24.7434 49.485C25.7074 48.928 26.0344 47.698 25.4774 46.737C24.9174 45.773 23.6894 45.441 22.7264 46.002Z" fill="#D1AA2B"/>
<path d="M68.8018 48.4859L64.4998 46.0019C63.5358 45.4459 62.3048 45.7769 61.7528 46.7359C61.1958 47.7009 61.5278 48.9309 62.4868 49.4839L66.7878 51.9679C67.1058 52.1499 67.4508 52.2389 67.7948 52.2389C68.4908 52.2389 69.1668 51.8779 69.5398 51.2329C70.0928 50.2699 69.7648 49.0379 68.8018 48.4859Z" fill="#D1AA2B"/>
<path d="M71.5357 34.2529H66.5667C65.4547 34.2529 64.5547 35.1529 64.5547 36.2659C64.5547 37.3789 65.4537 38.2789 66.5667 38.2789H71.5357C72.6477 38.2789 73.5477 37.3789 73.5477 36.2659C73.5477 35.1539 72.6477 34.2529 71.5357 34.2529Z" fill="#D1AA2B"/>
<path d="M63.492 26.801C63.832 26.801 64.18 26.716 64.499 26.53L68.801 24.046C69.764 23.489 70.091 22.258 69.535 21.298C68.978 20.334 67.747 20.007 66.787 20.564L62.486 23.048C61.522 23.605 61.195 24.836 61.752 25.796C62.121 26.44 62.797 26.801 63.492 26.801Z" fill="#D1AA2B"/>
<path d="M54.0846 18.131C54.4016 18.314 54.7466 18.403 55.0906 18.403C55.7866 18.403 56.4616 18.042 56.8356 17.397L59.3186 13.096C59.8756 12.132 59.5446 10.901 58.5846 10.349C57.6216 9.79202 56.3896 10.124 55.8376 11.083L53.3546 15.384C52.7936 16.343 53.1196 17.575 54.0846 18.131Z" fill="#D1AA2B"/>
<path d="M44.4105 19.1801C38.8105 18.9211 33.5545 21.3281 30.0085 25.8801C28.1355 28.2881 26.9595 31.2011 26.6195 34.2281C26.0975 38.8561 27.3545 43.2771 30.1735 46.8531C32.2285 49.4561 33.6425 51.9731 34.5005 54.5501L34.8455 55.5731C35.0105 56.0611 35.4655 56.3921 35.9825 56.3921H51.2425C51.7565 56.3921 52.2155 56.0611 52.3815 55.5731L52.7255 54.5501C53.5665 52.0321 54.9245 49.5861 56.8735 47.0761C58.4105 45.1021 59.6035 42.8551 60.2025 40.4311C62.8775 29.5951 54.7635 19.6511 44.4105 19.1801Z" fill="#00343A"/>
<path d="M35.4004 38.7738L42.9974 49.1228L50.5944 38.7738L42.9974 28.4238L35.4004 38.7738Z" fill="#D1AA2B"/>
</svg>
